# xmcd
#
# Track frame offsets:
#	150
#	25900
#	41757
#	63387
#	85065
#	103230
#	125665
#	145665
#	165242
#	183925
#	203562
#	222530
#	242270
#	261190
#	283612
#
# Disc length: 3988 seconds
#
# Revision: 5
# Processed by: cddbd v1.5.2PL0 Copyright (c) Steve Scherf et al.
# Submitted via: audiograbber 1.83.01
#
DISCID=d20f920f
DTITLE=Celine Dion - The Colour Of My Love
DYEAR=1993
DGENRE=Pop
TTITLE0=The Power Of Love
TTITLE1=Misled
TTITLE2=Think Twice
TTITLE3=Only One Road
TTITLE4=Everybody's Talkin' My Baby Down
TTITLE5=Next Plane Out
TTITLE6=Real Emotion
TTITLE7=When I Fall In Love
TTITLE8=Love Doesn't Ask Why
TTITLE9=Refuse To Dance
TTITLE10=I Remember L.A.
TTITLE11=No Living Without Loving You
TTITLE12=Lovin' Proof
TTITLE13=Just Walk Away
TTITLE14=The Colour Of My Love
EXTD=
EXTT0=
EXTT1=
EXTT2=
EXTT3=
EXTT4=
EXTT5=
EXTT6=
EXTT7=
EXTT8=
EXTT9=
EXTT10=
EXTT11=
EXTT12=
EXTT13=
EXTT14=
PLAYORDER=
